Coordinates
version=1
nRows=13
nColumns=40
inDegrees=yes

Units are S.I. units (second, meters, Newtons, ...)
Angles are in degrees.

endheader
time	pelvis_tilt	pelvis_list	pelvis_rotation	pelvis_tx	pelvis_ty	pelvis_tz	hip_flexion_r	hip_adduction_r	hip_rotation_r	knee_angle_r	knee_angle_r_beta	ankle_angle_r	subtalar_angle_r	mtp_angle_r	hip_flexion_l	hip_adduction_l	hip_rotation_l	knee_angle_l	knee_angle_l_beta	ankle_angle_l	subtalar_angle_l	mtp_angle_l	lumbar_extension	lumbar_bending	lumbar_rotation	arm_flex_r	arm_add_r	arm_rot_r	elbow_flex_r	pro_sup_r	wrist_flex_r	wrist_dev_r	arm_flex_l	arm_add_l	arm_rot_l	elbow_flex_l	pro_sup_l	wrist_flex_l	wrist_dev_l
     12.13250000	     -2.47201285	     -4.58649019	      6.35057630	      1.11811789	      0.93222037	      0.48579739	     10.53226445	      3.06177952	    -14.02120201	     16.52398374	     16.52398374	     10.56000729	     -3.87003009	     -3.83862295	     34.53793237	    -10.63524161	      1.57314956	     45.05788496	     45.05788496	      8.29882232	    -18.24588665	     13.19541796	    -12.65917513	      4.76156958	      0.29354917	     20.49223666	    -19.72395187	     -0.01298577	     70.22487370	     44.77319369	      0.00000000	      0.00000000	      3.19977945	    -10.97428501	     -9.86882752	     33.77064040	     47.17668136	      0.00000000	      0.00000000
     12.14557143	     -2.76883120	     -4.60316652	      6.70502763	      1.11671120	      0.93193085	      0.48558369	     10.38028320	      3.05661670	    -14.45359107	     16.16505109	     16.16505109	     10.55192640	     -3.62774017	     -4.49060253	     34.42893353	    -10.18038279	      1.74444844	     40.67307327	     40.67307327	      7.46334117	    -17.73389312	      9.97879950	    -12.63757509	      4.76263358	      1.38059851	     19.88505096	    -20.86279344	     -0.68605986	     74.83218892	     44.69407431	      0.00000000	      0.00000000	      4.39575874	    -10.37417080	    -10.74833204	     30.42141482	     47.24791274	      0.00000000	      0.00000000
     12.15864286	     -3.15239427	     -4.83659655	      7.02901420	      1.11518053	      0.93128567	      0.48539134	     10.51949625	      3.26658356	    -14.74143379	     16.10118694	     16.10118694	     10.69212762	     -3.74720291	     -4.58063614	     34.62515360	     -9.87648925	      2.23145547	     36.81136795	     36.81136795	      7.98191426	    -16.43808856	     10.21242994	    -12.38432986	      4.99506415	      1.63348344	     21.05935554	    -21.03388605	     -0.91323420	     75.52676613	     44.68598795	      0.00000000	      0.00000000	      3.90085457	    -10.23132501	    -10.75313555	     30.16484994	     47.23770749	      0.00000000	      0.00000000
     12.17171429	     -3.27443683	     -4.53427067	      7.30330864	      1.11411111	      0.93139359	      0.48488102	     10.05791083	      2.93509621	    -15.08745293	     15.65623935	     15.65623935	     10.88766179	     -3.21546518	     -4.91124863	     33.97060402	     -9.17086524	      2.26131201	     32.45588954	     32.45588954	      7.41451350	    -14.94966717	      8.14761377	    -12.57354294	      4.60793972	      1.31747224	     21.86299109	    -20.60382070	     -1.02317186	     78.62355079	     44.63405501	      0.00000000	      0.00000000	      3.31447242	    -10.25209916	    -11.21128754	     29.27655260	     47.24730970	      0.00000000	      0.00000000
     12.18478571	     -3.52310430	     -4.48860427	      7.53551938	      1.11297088	      0.93107049	      0.48444230	      9.91275659	      2.88712397	    -15.17898598	     15.45683414	     15.45683414	     11.08829816	     -3.29032466	     -4.98749750	     33.69956210	     -8.74010878	      2.42148741	     28.77566862	     28.77566862	      7.69981288	    -12.91228444	      8.27932781	    -12.48492993	      4.49046124	      1.31608943	     22.93350110	    -20.30524333	     -1.12723194	     79.68032533	     44.61459790	      0.00000000	      0.00000000	      2.73617065	    -10.24103276	    -11.26495649	     28.90840284	     47.23754759	      0.00000000	      0.00000000
     12.19785714	     -3.68469330	     -4.53221163	      7.76068182	      1.11200669	      0.93073608	      0.48391708	      9.66056611	      2.93146370	    -15.36681651	     15.23632423	     15.23632423	     11.28820615	     -3.19025099	     -5.10801149	     33.41931613	     -8.48085409	      2.45132207	     25.60213742	     25.60213742	      7.93157442	    -10.65333050	      8.25989061	    -12.47670746	      4.50037722	      1.20799187	     23.98428898	    -19.92686014	     -1.13555867	     81.10035191	     44.58348274	      0.00000000	      0.00000000	      2.12521617	    -10.20665643	    -11.37850714	     28.59507834	     47.23292435	      0.00000000	      0.00000000
     12.21092857	     -3.89488525	     -4.53230083	      7.93413852	      1.11116268	      0.93038037	      0.48329368	      9.45654573	      2.92118765	    -15.48515120	     15.02960715	     15.02960715	     11.49989937	     -3.12825841	     -5.20929150	     33.19563223	     -8.20161269	      2.35415884	     22.89022527	     22.89022527	      7.99391238	     -8.71347949	      8.44694883	    -12.36575001	      4.42574638	      1.26564894	     24.84837264	    -19.61266765	     -1.10149084	     82.19851010	     44.55731573	      0.00000000	      0.00000000	      1.58197134	    -10.14428394	    -11.47548124	     28.39832324	     47.23088866	      0.00000000	      0.00000000
     12.22400000	     -3.97688313	     -4.61683668	      8.09774941	      1.11055679	      0.93008408	      0.48257161	      9.06113928	      3.02035616	    -15.69074300	     14.73421669	     14.73421669	     11.69293474	     -2.86929787	     -5.33748864	     33.00815644	     -8.10088178	      1.97485191	     20.95009630	     20.95009630	      8.03809269	     -6.79231203	      8.37580949	    -12.38752363	      4.49516527	      1.24244530	     25.66708426	    -19.21731854	     -0.94929121	     83.75472329	     44.52426010	      0.00000000	      0.00000000	      0.95048404	    -10.06735963	    -11.78017966	     28.40096385	     47.24668646	      0.00000000	      0.00000000
     12.23707143	     -4.13401427	     -4.63651605	      8.20113747	      1.11009631	      0.92974673	      0.48175870	      8.78461022	      3.03871235	    -15.74195688	     14.54718049	     14.54718049	     11.92089608	     -2.81843992	     -5.39858401	     32.83396596	     -7.90132688	      1.65997987	     19.45277552	     19.45277552	      7.94426916	     -5.78839385	      8.53367348	    -12.22273326	      4.43285933	      1.40074070	     26.36758555	    -18.87398603	     -0.89110918	     84.51595537	     44.50779966	      0.00000000	      0.00000000	      0.51284734	     -9.98213334	    -11.88845485	     28.33525135	     47.24667738	      0.00000000	      0.00000000
     12.25014286	     -4.15396709	     -4.66724966	      8.28053607	      1.10989592	      0.92960258	      0.48084946	      8.27013906	      3.09729056	    -15.81402016	     14.21345540	     14.21345540	     12.13083941	     -2.55973088	     -5.44137461	     32.61075174	     -7.79936331	      1.09210368	     18.65511317	     18.65511317	      7.72049452	     -5.08307423	      8.47359980	    -12.22099833	      4.42146351	      1.40051530	     27.02243921	    -18.30369273	     -0.71374559	     85.54713959	     44.48325368	      0.00000000	      0.00000000	     -0.04087781	     -9.93616696	    -12.13001501	     28.33010519	     47.26211762	      0.00000000	      0.00000000
     12.26321429	     -4.25336119	     -4.76977416	      8.40898562	      1.10981010	      0.92911332	      0.47973820	      7.98300432	      3.18056434	    -15.91931674	     14.16415856	     14.16415856	     12.44377703	     -2.63692227	     -5.52175930	     32.63491337	     -7.69582538	      0.78732072	     18.61421859	     18.61421859	      7.55459818	     -5.16307044	      8.53709174	    -11.99219447	      4.44744902	      1.72713315	     27.26248909	    -18.16327531	     -0.66928917	     85.67940717	     44.47910098	      0.00000000	      0.00000000	     -0.22689110	     -9.90811559	    -12.15211694	     28.28398147	     47.26160385	      0.00000000	      0.00000000
     12.27628571	     -4.24102104	     -4.83363493	      8.30716322	      1.11011021	      0.92900020	      0.47879358	      7.28488270	      3.31198062	    -15.88619702	     13.58872042	     13.58872042	     12.61076365	     -2.05307697	     -5.47627670	     32.27192219	     -7.74997612	      0.06814549	     18.65889466	     18.65889466	      7.14779902	     -5.29225970	      8.14081727	    -12.01911376	      4.49755310	      1.66861342	     28.02123299	    -17.26782231	     -0.34632227	     86.89498833	     44.44337587	      0.00000000	      0.00000000	     -0.87523872	     -9.79437854	    -12.42757081	     28.33597514	     47.28117779	      0.00000000	      0.00000000
     12.28935714	     -4.31271386	     -4.88815070	      8.20182102	      1.11051850	      0.92851684	      0.47772816	      6.87894306	      3.36584746	    -15.78616787	     13.43240589	     13.43240589	     12.90717708	     -1.86378275	     -5.53141447	     32.02586859	     -7.77461669	     -0.47702171	     19.16225765	     19.16225765	      6.81835803	     -5.81477962	      8.01103930	    -11.80793396	      4.46403087	      2.06237709	     28.24541994	    -16.88307185	     -0.14716253	     87.16289652	     44.43270539	      0.00000000	      0.00000000	     -1.12522421	     -9.70225001	    -12.52704755	     28.37680375	     47.28807356	      0.00000000	      0.00000000
